<svg id="visual" viewBox="0 0 900 600" width="900" height="600" xmlns="http://www.w3.org/2000/svg" xmlns:xlink="http://www.w3.org/1999/xlink" version="1.1"><rect x="0" y="0" width="900" height="600" fill="#000921"></rect><path d="M0 418L21.5 410C43 402 86 386 128.8 388.3C171.7 390.7 214.3 411.3 257.2 415.7C300 420 343 408 385.8 395.3C428.7 382.7 471.3 369.3 514.2 366C557 362.7 600 369.3 642.8 380.7C685.7 392 728.3 408 771.2 415.3C814 422.7 857 421.3 878.5 420.7L900 420L900 601L878.5 601C857 601 814 601 771.2 601C728.3 601 685.7 601 642.8 601C600 601 557 601 514.2 601C471.3 601 428.7 601 385.8 601C343 601 300 601 257.2 601C214.3 601 171.7 601 128.8 601C86 601 43 601 21.5 601L0 601Z" fill="#007dd9"></path><path d="M0 398L21.5 411.5C43 425 86 452 128.8 457.7C171.7 463.3 214.3 447.7 257.2 438.7C300 429.7 343 427.3 385.8 426.3C428.7 425.3 471.3 425.7 514.2 432.3C557 439 600 452 642.8 460.2C685.7 468.3 728.3 471.7 771.2 465.3C814 459 857 443 878.5 435L900 427L900 601L878.5 601C857 601 814 601 771.2 601C728.3 601 685.7 601 642.8 601C600 601 557 601 514.2 601C471.3 601 428.7 601 385.8 601C343 601 300 601 257.2 601C214.3 601 171.7 601 128.8 601C86 601 43 601 21.5 601L0 601Z" fill="#006de3"></path><path d="M0 458L21.5 464C43 470 86 482 128.8 489.7C171.7 497.3 214.3 500.7 257.2 502.8C300 505 343 506 385.8 499.3C428.7 492.7 471.3 478.3 514.2 473.2C557 468 600 472 642.8 470.7C685.7 469.3 728.3 462.7 771.2 458.8C814 455 857 454 878.5 453.5L900 453L900 601L878.5 601C857 601 814 601 771.2 601C728.3 601 685.7 601 642.8 601C600 601 557 601 514.2 601C471.3 601 428.7 601 385.8 601C343 601 300 601 257.2 601C214.3 601 171.7 601 128.8 601C86 601 43 601 21.5 601L0 601Z" fill="#0058e8"></path><path d="M0 516L21.5 519.2C43 522.3 86 528.7 128.8 526.8C171.7 525 214.3 515 257.2 511.2C300 507.3 343 509.7 385.8 506.5C428.7 503.3 471.3 494.7 514.2 496.3C557 498 600 510 642.8 515.8C685.7 521.7 728.3 521.3 771.2 517C814 512.7 857 504.3 878.5 500.2L900 496L900 601L878.5 601C857 601 814 601 771.2 601C728.3 601 685.7 601 642.8 601C600 601 557 601 514.2 601C471.3 601 428.7 601 385.8 601C343 601 300 601 257.2 601C214.3 601 171.7 601 128.8 601C86 601 43 601 21.5 601L0 601Z" fill="#283de6"></path><path d="M0 531L21.5 535.5C43 540 86 549 128.8 553.5C171.7 558 214.3 558 257.2 560.7C300 563.3 343 568.7 385.8 570.5C428.7 572.3 471.3 570.7 514.2 565.7C557 560.7 600 552.3 642.8 545.5C685.7 538.7 728.3 533.3 771.2 535.3C814 537.3 857 546.7 878.5 551.3L900 556L900 601L878.5 601C857 601 814 601 771.2 601C728.3 601 685.7 601 642.8 601C600 601 557 601 514.2 601C471.3 601 428.7 601 385.8 601C343 601 300 601 257.2 601C214.3 601 171.7 601 128.8 601C86 601 43 601 21.5 601L0 601Z" fill="#4a00df"></path></svg>